{"title":"The.Legend.Of.Korra.S01E11E12.720p.HDTV.h264-OOO [PublicHD]","uid":7380819,"size":1720849312,"categoryP":"video","categoryS":"hd___tv_shows","magnet":"?xt=urn:btih:4ac0fe18e8553e93ecd2550880036b350eec8d0a&amp;dn=The.Legend.Of.Korra.S01E11E12.720p.HDTV.h264-OOO+%5BPublicHD%5D&amp;tr=udp%3A%2F%2Ftracker.openbittorrent.com%3A80&amp;tr=udp%3A%2F%2Fopen.demonii.com%3A1337&amp;tr=udp%3A%2F%2Ftracker.coppersurfer.tk%3A6969&amp;tr=udp%3A%2F%2Fexodus.desync.com%3A6969","seeders":5,"leechers":0,"uploader":"DibyaTPB","files":2,"time":1340494469,"description":"PublicHD - High-Definition Bittorrent Community \n   \n &lt;a href=&quot; http://publichd.eu/&quot; rel=&quot;nofollow&quot; target=&quot;_NEW&quot;&gt; http://publichd.eu/&lt;/a&gt;\n\n-----------------------------------------------------\n\nFormat : Matroska Format version : Version 2 File size: 1.60 GiB Duration : 46mn 20s Overall bit rate : 4 951 Kbps Encoded date : UTC 2012-06-23 19:18:30 Writing application: mkvmerge v5.2.1 ('A Far Off Place') built on Jan2 2012 23:21:10 Writing library: libebml v1.2.3 + libmatroska v1.3.0 Video ID : 1 Format : AVC Format/Info: Advanced Video Codec Format profile : &lt;a class=&quot;__cf_email__&quot; href=&quot;/cdn-cgi/l/email-protection&quot; data-cfemail=&quot;ca82a3ada28a86fee4fb&quot;&gt;[email&amp;#160;protected]&lt;/a&gt;&lt;script cf-hash='f9e31' type=&quot;text/javascript&quot;&gt;\n/* &lt;![CDATA[ */!function(){try{var t=&quot;currentScript&quot;in document?document.currentScript:function(){for(var t=document.getElementsByTagName(&quot;script&quot;),e=t.length;e--;)if(t[e].getAttribute(&quot;cf-hash&quot;))return t[e]}();if(t&amp;&amp;t.previousSibling){var e,r,n,i,c=t.previousSibling,a=c.getAttribute(&quot;data-cfemail&quot;);if(a){for(e=&quot;&quot;,r=parseInt(a.substr(0,2),16),n=2;a.length-n;n+=2)i=parseInt(a.substr(n,2),16)^r,e+=String.fromCharCode(i);e=document.createTextNode(e),c.parentNode.replaceChild(e,c)}}}catch(u){}}();/* ]]&gt; */&lt;/script&gt; Format settings, CABAC : Yes Format settings, ReFrames: 4 frames Codec ID : V_MPEG4/ISO/AVC Duration : 46mn 20s Bit rate : 4 502 Kbps Width: 1 280 pixels Height : 720 pixels Display aspect ratio : 16:9 Frame rate : 23.976 fps Color space: YUV Chroma subsampling : 4:2:0 Bit depth: 8 bits Scan type: Progressive Bits/(PixelFrame) : 0.204 Stream size: 1.43 GiB (89%) Writing library: x264 core 120 r2164 da19765 Encoding settings: cabac=1 / ref=3 / deblock=1:1:0 / analyse=0x3:0x113 / me=hex / subme=6 / psy=1 / psy_rd=1.00:0.00 / mixed_ref=1 / me_range=16 / chroma_me=1 / trellis=1 / 8x8dct=1 / cqm=0 / deadzone=21,11 / fast_pskip=1 / chroma_qp_offset=-4 / threads=6 / sliced_threads=0 / nr=0 / decimate=1 / interlaced=0 / bluray_compat=0 / constrained_intra=0 / bframes=3 / b_pyramid=2 / b_adapt=1 / b_bias=0 / direct=1 / weightb=1 / open_gop=0 / weightp=2 / keyint=240 / keyint_min=23 / scenecut=40 / intra_refresh=0 / rc_lookahead=40 / rc=2pass / mbtree=1 / bitrate=4502 / ratetol=1.0 / qcomp=0.60 / qpmin=10 / qpmax=51 / qpstep=4 / cplxblur=20.0 / qblur=0.5 / ip_ratio=1.40 / aq=1:1.00 Default: Yes Forced : No Audio ID : 2 Format : AC-3 Format/Info: Audio Coding 3 Mode extension : CM (complete main) Format settings, Endianness: Big Codec ID : A_AC3 Duration : 46mn 20s Bit rate mode: Constant Bit rate : 448 Kbps Channel(s) : 2 channels Channel positions: Front: L R Sampling rate: 48.0 KHz Bit depth: 16 bits Compression mode : Lossy Stream size: 148 MiB (9%) Default: Yes Forced : No\n\n","torrent":{"xt":"urn:btih:4ac0fe18e8553e93ecd2550880036b350eec8d0a","amp;dn":"The.Legend.Of.Korra.S01E11E12.720p.HDTV.h264-OOO+%5BPublicHD%5D","amp;tr":["udp%3A%2F%2Ftracker.openbittorrent.com%3A80","udp%3A%2F%2Fopen.demonii.com%3A1337","udp%3A%2F%2Ftracker.coppersurfer.tk%3A6969","udp%3A%2F%2Fexodus.desync.com%3A6969"],"infoHash":"4ac0fe18e8553e93ecd2550880036b350eec8d0a","infoHashBuffer":{"type":"Buffer","data":[74,192,254,24,232,85,62,147,236,210,85,8,128,3,107,53,14,236,141,10]},"announce":[],"urlList":[]}}